<?xml version="1.0" standalone="no"?>
<!DOCTYPE svg PUBLIC "-//W3C//DTD SVG 20010904//EN"
 "http://www.w3.org/TR/2001/REC-SVG-20010904/DTD/svg10.dtd">
<svg version="1.0" xmlns="http://www.w3.org/2000/svg"
 width="1024.000000pt" height="1024.000000pt" viewBox="0 0 1024.000000 1024.000000"
 preserveAspectRatio="xMidYMid meet">
<metadata>
Created by potrace 1.16, written by Peter Selinger 2001-2019
</metadata>
<g transform="translate(0.000000,1024.000000) scale(0.100000,-0.100000)"
fill="#000000" stroke="none">
<path d="M0 5120 l0 -5120 5120 0 5120 0 0 5120 0 5120 -5120 0 -5120 0 0
-5120z m4630 265 l0 -1435 -125 0 -125 0 0 -125 0 -125 -115 0 -115 0 0 -120
0 -120 -605 0 -605 0 0 120 0 120 -115 0 -115 0 0 125 0 125 -125 0 -125 0 0
350 c0 193 1 350 3 350 1 0 161 3 355 7 l352 6 0 -241 0 -242 365 -2 365 -3 0
1078 0 1077 -360 0 -360 0 0 240 0 240 493 3 c270 1 597 3 725 5 l232 2 0
-1435z m2549 1310 l-1 -127 116 1 116 2 0 -123 0 -123 117 0 118 0 3 -237 2
-238 -350 0 -350 0 -1 98 c-1 53 -2 105 -3 114 -1 17 -40 18 -573 24 l-571 7
0 -957 1 -956 573 -2 574 -3 0 310 0 310 -230 -3 -230 -3 0 286 0 285 580 0
580 0 -2 -707 c-2 -558 -6 -708 -15 -709 -7 -1 -60 -2 -118 -3 l-105 -1 0
-120 0 -121 -116 3 -116 3 -1 -120 -2 -120 -802 -3 -803 -3 0 121 0 120 -120
0 -120 0 0 125 0 125 -115 0 -115 0 0 1185 0 1185 83 2 c45 1 97 2 115 3 l32
0 0 123 0 122 120 0 120 0 0 120 0 120 353 2 c193 2 556 5 805 7 l453 3 -2
-127z"/>
</g>
</svg>
