<svg xmlns="http://www.w3.org/2000/svg" xmlns:v="https://svgstorm.com"
viewBox = "0 0 1024 1024"
width="1024"
height="1024">
<g fill="None" fill-opacity="0.0" stroke="#2B2B2B" stroke-opacity="1.00" stroke-width="0.3"><path d="
M 0.00 1024.00 
L 1024.00 1024.00
L 1024.00 0.00
L 0.00 0.00
L 0.00 1024.00
M 645.00 178.00 
C 645.65 226.09 643.91 273.19 646.00 320.00
C 638.47 321.98 628.81 320.30 621.00 321.00
C 621.00 312.67 621.00 304.33 621.00 296.00
C 485.36 296.49 354.59 294.81 222.00 295.00
C 221.93 365.45 222.05 436.94 222.00 508.00
C 213.57 510.00 206.10 507.77 198.00 509.00
C 198.00 398.67 198.00 288.33 198.00 178.00
C 344.21 176.49 495.22 178.93 645.00 178.00
M 837.00 272.00 
C 835.26 279.76 842.30 297.46 829.00 295.00 C 791.36 296.19 752.98 294.54 718.00 296.00
C 718.16 287.56 717.52 280.17 718.00 272.00
C 757.50 271.87 797.04 272.07 837.00 272.00
M 814.00 320.00 
C 814.00 327.67 814.00 335.33 814.00 343.00
C 797.61 343.51 782.09 342.80 765.00 343.00
C 764.00 335.59 763.90 328.12 764.00 320.00
C 780.67 320.00 797.33 320.00 814.00 320.00
M 319.00 343.00 
C 338.00 343.00 357.00 343.00 376.00 343.00
C 375.96 343.00 376.00 342.00 376.00 342.00
C 357.67 342.00 339.33 342.00 321.00 342.00
C 360.10 339.67 401.15 341.67 441.00 341.00 C 448.77 342.89 466.69 335.42 464.00 349.00 C 464.00 440.33 464.00 531.67 464.00 623.00 C 466.71 636.56 448.76 629.12 441.00 631.00
C 446.92 628.06 456.15 631.95 462.00 629.00
C 454.67 629.00 447.33 629.00 440.00 629.00
C 439.78 637.20 440.44 645.60 439.67 653.67 C 432.80 656.70 423.72 654.17 416.00 655.00
C 416.00 663.00 416.00 671.00 416.00 679.00
C 379.00 679.00 342.00 679.00 305.00 679.00 C 287.54 684.41 292.39 665.88 292.00 655.00
C 284.67 654.49 276.71 656.03 269.78 654.22 C 267.99 646.98 269.50 638.65 269.00 631.00
C 258.81 630.19 239.95 635.95 245.00 619.00 C 245.00 606.67 245.00 594.33 245.00 582.00 C 246.06 571.69 239.61 551.92 257.00 557.00 C 269.00 557.00 281.00 557.00 293.00 557.00 C 302.83 558.64 323.57 550.90 319.00 568.00 C 319.00 580.33 319.00 592.67 319.00 605.00
C 342.33 605.00 365.67 605.00 389.00 605.00
C 386.56 534.78 388.93 463.50 388.00 393.00
C 364.54 393.53 340.93 391.85 317.00 392.00
C 317.00 379.33 317.00 366.67 317.00 354.00 C 316.16 350.84 317.58 337.58 319.00 343.00
M 717.00 342.00 
C 717.32 342.24 718.00 342.00 718.00 342.00
C 720.30 349.09 718.36 358.16 719.00 366.00
C 725.67 366.65 737.37 364.69 741.00 367.00
C 741.00 374.67 741.00 382.33 741.00 390.00
C 749.61 392.01 769.27 383.90 766.00 399.00 C 766.00 410.33 766.00 421.67 766.00 433.00 C 766.98 446.29 747.36 437.45 739.00 440.00 C 727.67 440.00 716.33 440.00 705.00 440.00 C 688.53 445.03 693.55 427.07 693.00 417.00
C 656.50 416.33 618.68 418.33 583.00 416.00
C 582.70 415.78 582.26 415.11 582.00 415.00
C 580.59 414.49 579.85 415.81 580.00 417.00
C 580.00 416.96 581.00 417.00 581.00 417.00
C 583.33 425.02 581.34 440.98 582.00 452.00 C 582.00 503.00 582.00 554.00 582.00 605.00
C 619.00 605.00 656.00 605.00 693.00 605.00
C 693.00 585.33 693.00 565.67 693.00 546.00
C 684.00 546.00 675.00 546.00 666.00 546.00 C 658.38 545.23 643.36 549.99 647.00 537.00 C 647.00 527.67 647.00 518.33 647.00 509.00 C 649.03 502.13 641.85 486.15 653.00 487.00 C 689.84 487.67 727.99 485.67 764.00 488.00
C 764.32 488.24 765.00 488.00 765.00 488.00
C 767.33 531.10 765.33 576.15 766.00 620.00 C 770.64 635.91 752.39 630.04 743.00 631.00
C 742.49 638.66 744.03 646.95 742.22 654.22 C 734.98 656.01 726.65 654.50 719.00 655.00
C 717.80 664.54 724.34 683.61 708.00 679.00 C 661.00 679.00 614.00 679.00 567.00 679.00 C 550.06 684.08 555.81 665.18 555.00 655.00
C 547.22 654.20 538.34 656.63 531.26 653.74 C 532.18 646.51 529.16 636.85 533.00 632.00
C 533.00 631.00 533.00 630.00 533.00 629.00
C 525.33 629.00 517.67 629.00 510.00 629.00
C 510.00 550.00 510.00 471.00 510.00 392.00
C 514.00 392.00 518.00 392.00 522.00 392.00
C 521.96 392.00 522.00 391.00 522.00 391.00
C 518.33 391.00 514.67 391.00 511.00 391.00
C 517.09 388.71 525.16 390.63 532.00 390.00
C 530.26 383.16 530.58 374.64 531.78 367.78 C 538.21 363.81 547.46 367.06 555.00 366.00
C 555.65 358.99 553.69 346.97 556.00 343.00
C 556.35 343.23 557.00 343.00 557.00 343.00
C 558.00 343.00 559.00 343.00 560.00 343.00
C 559.76 341.33 557.15 342.83 557.00 341.00
C 610.17 341.67 664.65 339.67 717.00 342.00
M 861.00 536.00 
C 860.27 542.70 862.05 551.02 860.00 558.00
C 852.33 558.00 844.67 558.00 837.00 558.00
C 837.00 550.33 837.00 542.67 837.00 535.00
C 844.93 535.61 853.51 533.75 861.00 536.00
M 861.00 581.00 
C 860.19 591.19 865.95 610.05 849.00 605.00 C 837.00 605.00 825.00 605.00 813.00 605.00
C 815.07 597.45 813.52 588.95 814.00 581.00
C 829.67 581.00 845.33 581.00 861.00 581.00
M 222.00 653.00 
C 222.00 661.00 222.00 669.00 222.00 677.00
C 198.67 677.00 175.33 677.00 152.00 677.00
C 152.00 669.00 152.00 661.00 152.00 653.00
C 175.33 653.00 198.67 653.00 222.00 653.00
M 270.00 701.00 
C 270.00 708.33 270.00 715.67 270.00 723.00
C 238.33 723.00 206.67 723.00 175.00 723.00
C 175.00 715.67 175.00 708.33 175.00 701.00
C 206.72 701.10 238.89 700.85 270.00 701.00
M 789.00 701.00 
C 789.00 716.67 789.00 732.33 789.00 748.00
C 778.81 748.81 759.95 743.05 765.00 760.00 C 765.00 772.00 765.00 784.00 765.00 796.00
C 754.92 796.56 737.00 791.51 742.00 808.00 C 742.00 819.67 742.00 831.33 742.00 843.00
C 734.33 843.00 726.67 843.00 719.00 843.00
C 716.59 827.65 718.58 811.46 719.00 796.00
C 726.87 796.36 734.66 795.41 742.00 796.00
C 742.00 780.00 742.00 764.00 742.00 748.00
C 749.67 748.00 757.33 748.00 765.00 748.00
C 765.00 732.33 765.00 716.67 765.00 701.00
C 773.00 701.00 781.00 701.00 789.00 701.00
M 694.00 748.00 
C 686.67 748.51 678.71 746.97 671.78 748.78 C 669.99 756.02 671.50 764.35 671.00 772.00
C 663.67 772.51 655.71 770.97 648.78 772.78 C 646.99 780.02 648.50 788.35 648.00 796.00
C 640.00 796.00 632.00 796.00 624.00 796.00
C 624.00 788.00 624.00 780.00 624.00 772.00
C 632.00 772.00 640.00 772.00 648.00 772.00
C 648.00 764.00 648.00 756.00 648.00 748.00
C 655.67 748.00 663.33 748.00 671.00 748.00
C 671.00 740.00 671.00 732.00 671.00 724.00
C 677.58 725.43 684.42 724.04 691.07 724.07 C 697.44 728.74 692.38 740.47 694.00 748.00
M 580.00 748.00 
C 580.00 756.00 580.00 764.00 580.00 772.00
C 501.00 772.00 422.00 772.00 343.00 772.00
C 343.00 764.00 343.00 756.00 343.00 748.00
C 422.53 748.12 500.03 747.98 580.00 748.00
M 837.00 748.00 
C 837.00 756.00 837.00 764.00 837.00 772.00
C 829.33 772.00 821.67 772.00 814.00 772.00
C 814.57 764.16 813.71 756.30 814.00 748.00
C 821.67 748.00 829.33 748.00 837.00 748.00
M 860.00 773.00 
C 860.00 780.67 860.00 788.33 860.00 796.00
C 852.03 796.47 843.57 794.94 836.00 797.00
C 838.37 804.02 836.01 812.15 837.00 819.00
C 829.33 819.00 821.67 819.00 814.00 819.00
C 814.00 811.33 814.00 803.67 814.00 796.00
C 821.67 796.00 829.33 796.00 837.00 796.00
C 837.00 788.33 837.00 780.67 837.00 773.00
C 844.67 773.00 852.33 773.00 860.00 773.00
M 532.00 795.00 
C 532.00 803.33 532.00 811.67 532.00 820.00
C 484.52 819.93 438.48 819.83 391.00 820.00
C 391.00 812.00 391.00 804.00 391.00 796.00
C 437.92 795.37 485.49 797.29 532.00 795.00
M 671.00 796.00 
C 670.46 803.68 671.22 810.95 671.00 819.00
C 663.33 819.00 655.67 819.00 648.00 819.00
C 648.51 811.67 646.97 803.71 648.78 796.78 C 655.68 795.00 663.68 796.50 671.00 796.00
M 695.00 819.00 
C 695.45 827.53 694.31 835.08 694.00 843.00
C 686.33 843.00 678.67 843.00 671.00 843.00
C 671.51 835.34 669.97 827.05 671.78 819.78 C 679.02 817.99 687.35 819.50 695.00 819.00 Z"/>
</g>
<g fill="None" fill-opacity="0.0" stroke="#454545" stroke-opacity="1.00" stroke-width="0.3"><path d="
M 645.00 178.00 
C 495.22 178.93 344.21 176.49 198.00 178.00
C 198.00 288.33 198.00 398.67 198.00 509.00
C 206.10 507.77 213.57 510.00 222.00 508.00
C 222.05 436.94 221.93 365.45 222.00 295.00
C 354.59 294.81 485.36 296.49 621.00 296.00
C 621.00 304.33 621.00 312.67 621.00 321.00
C 628.81 320.30 638.47 321.98 646.00 320.00
C 643.91 273.19 645.65 226.09 645.00 178.00
M 621.00 202.00 
C 621.10 226.11 621.45 247.90 621.00 272.00
C 487.00 272.00 355.45 271.93 222.00 272.00
C 222.00 248.33 222.00 224.67 222.00 201.00
C 352.30 201.86 487.74 202.24 621.00 202.00 Z"/>
</g>
<g fill="None" fill-opacity="0.0" stroke="#2B2B2B" stroke-opacity="1.00" stroke-width="0.3"><path d="
M 621.00 202.00 
C 487.74 202.24 352.30 201.86 222.00 201.00
C 222.00 224.67 222.00 248.33 222.00 272.00
C 355.45 271.93 487.00 272.00 621.00 272.00
C 621.45 247.90 621.10 226.11 621.00 202.00
M 270.00 224.00 
C 270.00 232.00 270.00 240.00 270.00 248.00
C 262.56 248.64 254.45 246.00 247.00 248.00
C 245.18 239.95 247.05 231.81 246.00 224.00
C 253.44 224.83 261.89 223.47 270.00 224.00
M 318.00 225.00 
C 318.00 232.67 318.00 240.33 318.00 248.00
C 310.33 248.00 302.67 248.00 295.00 248.00
C 295.53 240.10 294.38 232.67 294.00 225.00
C 302.00 225.00 310.00 225.00 318.00 225.00 Z"/>
</g>
<g fill="None" fill-opacity="0.0" stroke="#444444" stroke-opacity="1.00" stroke-width="0.3"><path d="
M 270.00 224.00 
C 261.89 223.47 253.44 224.83 246.00 224.00
C 247.05 231.81 245.18 239.95 247.00 248.00
C 254.45 246.00 262.56 248.64 270.00 248.00
C 270.00 240.00 270.00 232.00 270.00 224.00 Z"/>
</g>
<g fill="None" fill-opacity="0.0" stroke="#444444" stroke-opacity="1.00" stroke-width="0.3"><path d="
M 318.00 225.00 
C 310.00 225.00 302.00 225.00 294.00 225.00
C 294.38 232.67 295.53 240.10 295.00 248.00
C 302.67 248.00 310.33 248.00 318.00 248.00
C 318.00 240.33 318.00 232.67 318.00 225.00 Z"/>
</g>
<g fill="None" fill-opacity="0.0" stroke="#454545" stroke-opacity="1.00" stroke-width="0.3"><path d="
M 837.00 272.00 
C 797.04 272.07 757.50 271.87 718.00 272.00
C 717.52 280.17 718.16 287.56 718.00 296.00
C 752.98 294.54 791.36 296.19 829.00 295.00 C 842.30 297.46 835.26 279.76 837.00 272.00 Z"/>
</g>
<g fill="None" fill-opacity="0.0" stroke="#444444" stroke-opacity="1.00" stroke-width="0.3"><path d="
M 814.00 320.00 
C 797.33 320.00 780.67 320.00 764.00 320.00
C 763.90 328.12 764.00 335.59 765.00 343.00
C 782.09 342.80 797.61 343.51 814.00 343.00
C 814.00 335.33 814.00 327.67 814.00 320.00 Z"/>
</g>
<g fill="None" fill-opacity="0.0" stroke="#090909" stroke-opacity="1.00" stroke-width="0.3"><path d="
M 440.00 629.00 
C 439.50 629.00 439.00 629.00 439.00 629.00
C 438.34 637.17 440.33 646.66 438.00 654.00
C 437.74 654.25 437.00 654.00 437.00 654.00
C 429.67 654.00 422.33 654.00 415.00 654.00
C 415.00 661.67 415.00 669.33 415.00 677.00
C 384.24 679.33 351.51 677.33 320.00 678.00
C 311.50 677.34 301.67 679.33 294.00 677.00
C 292.36 670.74 292.31 661.19 294.00 655.00
C 294.00 654.50 294.00 654.00 294.00 654.00
C 286.50 653.34 277.67 655.33 271.00 653.00
C 269.36 646.74 269.31 637.19 271.00 631.00
C 271.00 630.50 271.00 630.00 271.00 630.00
C 263.17 629.34 254.01 631.33 247.00 629.00
C 244.67 606.57 246.66 582.18 246.00 559.00
C 254.76 556.69 265.49 558.65 275.00 558.00
C 288.67 558.00 302.33 558.00 316.00 558.00
C 316.50 558.00 317.00 558.00 317.00 558.00
C 318.66 572.60 318.67 590.48 317.00 605.00
C 340.34 607.99 366.35 604.01 390.00 607.00
C 390.00 535.00 390.00 463.00 390.00 391.00
C 366.00 391.00 342.00 391.00 318.00 391.00
C 318.67 375.17 316.67 358.01 319.00 343.00
C 317.58 337.58 316.16 350.84 317.00 354.00 C 317.00 366.67 317.00 379.33 317.00 392.00
C 340.93 391.85 364.54 393.53 388.00 393.00
C 388.93 463.50 386.56 534.78 389.00 605.00
C 365.67 605.00 342.33 605.00 319.00 605.00
C 319.00 592.67 319.00 580.33 319.00 568.00 C 323.57 550.90 302.83 558.64 293.00 557.00 C 281.00 557.00 269.00 557.00 257.00 557.00 C 239.61 551.92 246.06 571.69 245.00 582.00 C 245.00 594.33 245.00 606.67 245.00 619.00 C 239.95 635.95 258.81 630.19 269.00 631.00
C 269.50 638.65 267.99 646.98 269.78 654.22 C 276.71 656.03 284.67 654.49 292.00 655.00
C 292.39 665.88 287.54 684.41 305.00 679.00 C 342.00 679.00 379.00 679.00 416.00 679.00
C 416.00 671.00 416.00 663.00 416.00 655.00
C 423.72 654.17 432.80 656.70 439.67 653.67 C 440.44 645.60 439.78 637.20 440.00 629.00 Z"/>
</g>
<g fill="None" fill-opacity="0.0" stroke="#030303" stroke-opacity="1.00" stroke-width="0.3"><path d="
M 376.00 342.00 
C 389.33 342.00 402.67 342.00 416.00 342.00
C 428.67 342.00 441.33 342.00 454.00 342.00
C 456.76 342.84 462.57 340.04 463.00 344.00
C 462.33 438.84 464.33 534.99 462.00 629.00
C 456.15 631.95 446.92 628.06 441.00 631.00
C 448.76 629.12 466.71 636.56 464.00 623.00 C 464.00 531.67 464.00 440.33 464.00 349.00 C 466.69 335.42 448.77 342.89 441.00 341.00 C 401.15 341.67 360.10 339.67 321.00 342.00
C 339.33 342.00 357.67 342.00 376.00 342.00 Z"/>
</g>
<g fill="None" fill-opacity="0.0" stroke="#080808" stroke-opacity="1.00" stroke-width="0.3"><path d="
M 560.00 343.00 
C 560.50 343.00 561.00 343.00 561.00 343.00
C 576.09 340.67 593.15 342.66 609.00 342.00
C 628.33 342.00 647.67 342.00 667.00 342.00
C 682.33 342.00 697.67 342.00 713.00 342.00
C 714.33 342.00 715.67 342.00 717.00 342.00
C 664.65 339.67 610.17 341.67 557.00 341.00
C 557.15 342.83 559.76 341.33 560.00 343.00 Z"/>
</g>
<g fill="None" fill-opacity="0.0" stroke="#696969" stroke-opacity="1.00" stroke-width="0.3"><path d="
M 376.00 343.00 
C 389.33 343.00 402.67 343.00 416.00 343.00
C 415.96 343.00 416.00 342.00 416.00 342.00
C 402.67 342.00 389.33 342.00 376.00 342.00
C 376.00 342.00 375.96 343.00 376.00 343.00 Z"/>
</g>
<g fill="None" fill-opacity="0.0" stroke="#9B9B9B" stroke-opacity="1.00" stroke-width="0.3"><path d="
M 416.00 343.00 
C 428.50 342.33 442.32 344.33 454.00 342.00
C 441.33 342.00 428.67 342.00 416.00 342.00
C 416.00 342.00 415.96 343.00 416.00 343.00 Z"/>
</g>
<g fill="None" fill-opacity="0.0" stroke="#F0F0F0" stroke-opacity="1.00" stroke-width="0.3"><path d="
M 416.00 343.00 
C 402.67 343.00 389.33 343.00 376.00 343.00
C 357.00 343.00 338.00 343.00 319.00 343.00
C 316.67 358.01 318.67 375.17 318.00 391.00
C 342.00 391.00 366.00 391.00 390.00 391.00
C 390.00 463.00 390.00 535.00 390.00 607.00
C 366.35 604.01 340.34 607.99 317.00 605.00
C 317.00 589.33 317.00 573.67 317.00 558.00
C 317.00 558.00 316.50 558.00 316.00 558.00
C 303.24 560.32 288.51 558.34 275.00 559.00
C 265.33 559.00 255.67 559.00 246.00 559.00
C 246.66 582.18 244.67 606.57 247.00 629.00
C 254.83 629.66 263.99 627.67 271.00 630.00
C 271.00 630.00 271.00 630.50 271.00 631.00
C 271.00 638.33 271.00 645.67 271.00 653.00
C 278.50 653.66 287.33 651.67 294.00 654.00
C 294.00 654.00 294.00 654.50 294.00 655.00
C 294.00 662.33 294.00 669.67 294.00 677.00
C 301.67 679.33 311.50 677.34 320.00 678.00
C 350.76 675.67 383.48 677.67 415.00 677.00
C 415.00 669.33 415.00 661.67 415.00 654.00
C 421.26 652.36 430.81 652.31 437.00 654.00
C 437.00 654.00 437.74 654.25 438.00 654.00
C 438.66 645.83 436.67 636.34 439.00 629.00
C 439.00 629.00 439.50 629.00 440.00 629.00
C 447.33 629.00 454.67 629.00 462.00 629.00
C 462.67 534.16 460.67 438.01 463.00 344.00
C 462.57 340.04 456.76 342.84 454.00 342.00
C 442.32 344.33 428.50 342.33 416.00 343.00 Z"/>
</g>
<g fill="None" fill-opacity="0.0" stroke="#0A0A0A" stroke-opacity="1.00" stroke-width="0.3"><path d="
M 522.00 391.00 
C 525.67 391.00 529.33 391.00 533.00 391.00
C 533.00 383.00 533.00 375.00 533.00 367.00
C 538.67 367.00 544.33 367.00 550.00 367.00
C 552.33 367.00 554.67 367.00 557.00 367.00
C 557.25 366.74 557.00 366.00 557.00 366.00
C 554.70 359.24 556.64 350.51 556.00 343.00
C 553.69 346.97 555.65 358.99 555.00 366.00
C 547.46 367.06 538.21 363.81 531.78 367.78 C 530.58 374.64 530.26 383.16 532.00 390.00
C 525.16 390.63 517.09 388.71 511.00 391.00
C 514.67 391.00 518.33 391.00 522.00 391.00 Z"/>
</g>
<g fill="None" fill-opacity="0.0" stroke="#333333" stroke-opacity="1.00" stroke-width="0.3"><path d="
M 561.00 343.00 
C 577.00 343.00 593.00 343.00 609.00 343.00
C 608.96 343.00 609.00 342.00 609.00 342.00
C 593.15 342.66 576.09 340.67 561.00 343.00 Z"/>
</g>
<g fill="None" fill-opacity="0.0" stroke="#656565" stroke-opacity="1.00" stroke-width="0.3"><path d="
M 609.00 343.00 
C 628.33 343.00 647.67 343.00 667.00 343.00
C 666.96 343.00 667.00 342.00 667.00 342.00
C 647.67 342.00 628.33 342.00 609.00 342.00
C 609.00 342.00 608.96 343.00 609.00 343.00 Z"/>
</g>
<g fill="None" fill-opacity="0.0" stroke="#A0A0A0" stroke-opacity="1.00" stroke-width="0.3"><path d="
M 667.00 343.00 
C 682.17 342.33 698.66 344.33 713.00 342.00
C 697.67 342.00 682.33 342.00 667.00 342.00
C 667.00 342.00 666.96 343.00 667.00 343.00 Z"/>
</g>
<g fill="None" fill-opacity="0.0" stroke="#F0F0F0" stroke-opacity="1.00" stroke-width="0.3"><path d="
M 667.00 343.00 
C 647.67 343.00 628.33 343.00 609.00 343.00
C 593.00 343.00 577.00 343.00 561.00 343.00
C 561.00 343.00 560.50 343.00 560.00 343.00
C 559.00 343.00 558.00 343.00 557.00 343.00
C 557.00 350.67 557.00 358.33 557.00 366.00
C 557.00 366.00 557.25 366.74 557.00 367.00
C 555.67 368.47 551.26 368.71 550.00 367.00
C 544.33 367.00 538.67 367.00 533.00 367.00
C 533.00 375.00 533.00 383.00 533.00 391.00
C 530.24 393.16 525.51 391.45 522.00 392.00
C 518.00 392.00 514.00 392.00 510.00 392.00
C 510.00 471.00 510.00 550.00 510.00 629.00
C 517.67 629.00 525.33 629.00 533.00 629.00
C 533.00 630.00 533.00 631.00 533.00 632.00
C 533.00 639.00 533.00 646.00 533.00 653.00
C 540.83 653.66 549.99 651.67 557.00 654.00
C 557.25 654.26 557.00 655.00 557.00 655.00
C 557.00 662.67 557.00 670.33 557.00 678.00
C 557.26 678.25 558.00 678.00 558.00 678.00
C 568.43 675.68 580.82 677.66 592.00 677.00
C 633.67 677.00 675.33 677.00 717.00 677.00
C 717.66 669.50 715.67 660.67 718.00 654.00
C 718.22 653.70 718.65 653.05 719.00 653.00
C 725.83 653.66 733.99 651.68 740.00 654.00
C 740.35 653.95 740.78 653.30 741.00 653.00
C 741.00 645.67 741.00 638.33 741.00 631.00
C 742.45 629.04 745.80 630.44 748.00 630.00
C 752.42 627.75 758.82 629.61 764.00 629.00
C 764.00 582.00 764.00 535.00 764.00 488.00
C 725.67 488.00 687.33 488.00 649.00 488.00
C 649.00 507.00 649.00 526.00 649.00 545.00
C 649.26 545.25 650.00 545.00 650.00 545.00
C 663.93 543.34 681.14 543.33 695.00 545.00
C 695.25 545.26 695.00 546.00 695.00 546.00
C 695.00 565.67 695.00 585.33 695.00 605.00
C 695.18 605.74 694.95 606.91 694.00 607.00
C 692.12 606.53 689.07 608.06 688.00 606.00
C 655.00 606.00 622.00 606.00 589.00 606.00
C 587.04 607.52 581.89 607.72 580.00 606.00
C 579.77 605.65 580.00 604.50 580.00 604.00
C 580.00 541.67 580.00 479.33 580.00 417.00
C 579.85 415.81 580.59 414.49 582.00 415.00
C 605.33 415.00 628.67 415.00 652.00 415.00
C 665.67 415.00 679.33 415.00 693.00 415.00
C 697.50 421.16 693.79 431.30 695.00 439.00
C 705.00 439.00 715.00 439.00 725.00 439.00
C 737.43 436.68 751.82 438.66 765.00 438.00
C 765.25 437.74 765.00 437.00 765.00 437.00
C 762.68 422.91 764.66 406.85 764.00 392.00
C 756.50 391.34 747.67 393.33 741.00 391.00
C 740.75 390.74 741.00 390.00 741.00 390.00
C 741.00 382.33 741.00 374.67 741.00 367.00
C 737.67 367.00 734.33 367.00 731.00 367.00
C 727.91 369.19 722.84 367.43 719.00 368.00
C 714.43 362.24 718.26 350.18 717.00 342.00
C 715.67 342.00 714.33 342.00 713.00 342.00
C 698.66 344.33 682.17 342.33 667.00 343.00 Z"/>
</g>
<g fill="None" fill-opacity="0.0" stroke="#8D8D8D" stroke-opacity="1.00" stroke-width="0.3"><path d="
M 719.00 368.00 
C 718.96 368.00 719.00 367.00 719.00 367.00
C 716.70 359.58 718.64 350.18 718.00 342.00
C 718.00 342.00 717.32 342.24 717.00 342.00
C 718.26 350.18 714.43 362.24 719.00 368.00 Z"/>
</g>
<g fill="None" fill-opacity="0.0" stroke="#010101" stroke-opacity="1.00" stroke-width="0.3"><path d="
M 719.00 367.00 
C 723.00 367.00 727.00 367.00 731.00 367.00
C 734.33 367.00 737.67 367.00 741.00 367.00
C 737.37 364.69 725.67 366.65 719.00 366.00
C 718.36 358.16 720.30 349.09 718.00 342.00
C 718.64 350.18 716.70 359.58 719.00 367.00 Z"/>
</g>
<g fill="None" fill-opacity="0.0" stroke="#5C5C5C" stroke-opacity="1.00" stroke-width="0.3"><path d="
M 557.00 366.00 
C 557.00 358.33 557.00 350.67 557.00 343.00
C 557.00 343.00 556.35 343.23 556.00 343.00
C 556.64 350.51 554.70 359.24 557.00 366.00 Z"/>
</g>
<g fill="None" fill-opacity="0.0" stroke="#9E9E9E" stroke-opacity="1.00" stroke-width="0.3"><path d="
M 462.00 629.00 
C 464.33 534.99 462.33 438.84 463.00 344.00
C 460.67 438.01 462.67 534.16 462.00 629.00 Z"/>
</g>
<g fill="None" fill-opacity="0.0" stroke="#B1B1B1" stroke-opacity="1.00" stroke-width="0.3"><path d="
M 557.00 367.00 
C 554.67 367.00 552.33 367.00 550.00 367.00
C 551.26 368.71 555.67 368.47 557.00 367.00 Z"/>
</g>
<g fill="None" fill-opacity="0.0" stroke="#B5B6B5" stroke-opacity="1.00" stroke-width="0.3"><path d="
M 719.00 368.00 
C 722.84 367.43 727.91 369.19 731.00 367.00
C 727.00 367.00 723.00 367.00 719.00 367.00
C 719.00 367.00 718.96 368.00 719.00 368.00 Z"/>
</g>
<g fill="None" fill-opacity="0.0" stroke="#020202" stroke-opacity="1.00" stroke-width="0.3"><path d="
M 741.00 391.00 
C 748.83 391.66 757.99 389.67 765.00 392.00
C 765.00 407.00 765.00 422.00 765.00 437.00
C 765.00 437.00 765.25 437.74 765.00 438.00
C 752.57 440.32 738.18 438.34 725.00 439.00
C 715.00 439.00 705.00 439.00 695.00 439.00
C 692.05 432.41 695.96 422.52 693.00 416.00
C 679.33 416.00 665.67 416.00 652.00 416.00
C 629.00 416.00 606.00 416.00 583.00 416.00
C 618.68 418.33 656.50 416.33 693.00 417.00
C 693.55 427.07 688.53 445.03 705.00 440.00 C 716.33 440.00 727.67 440.00 739.00 440.00 C 747.36 437.45 766.98 446.29 766.00 433.00 C 766.00 421.67 766.00 410.33 766.00 399.00 C 769.27 383.90 749.61 392.01 741.00 390.00
C 741.00 390.00 740.75 390.74 741.00 391.00 Z"/>
</g>
<g fill="None" fill-opacity="0.0" stroke="#868584" stroke-opacity="1.00" stroke-width="0.3"><path d="
M 522.00 392.00 
C 525.51 391.45 530.24 393.16 533.00 391.00
C 529.33 391.00 525.67 391.00 522.00 391.00
C 522.00 391.00 521.96 392.00 522.00 392.00 Z"/>
</g>
<g fill="None" fill-opacity="0.0" stroke="#929292" stroke-opacity="1.00" stroke-width="0.3"><path d="
M 764.00 392.00 
C 764.50 392.00 765.00 392.00 765.00 392.00
C 757.99 389.67 748.83 391.66 741.00 391.00
C 747.67 393.33 756.50 391.34 764.00 392.00 Z"/>
</g>
<g fill="None" fill-opacity="0.0" stroke="#B9B9B9" stroke-opacity="1.00" stroke-width="0.3"><path d="
M 765.00 437.00 
C 765.00 422.00 765.00 407.00 765.00 392.00
C 765.00 392.00 764.50 392.00 764.00 392.00
C 764.66 406.85 762.68 422.91 765.00 437.00 Z"/>
</g>
<g fill="None" fill-opacity="0.0" stroke="#6B6B6B" stroke-opacity="1.00" stroke-width="0.3"><path d="
M 583.00 416.00 
C 606.00 416.00 629.00 416.00 652.00 416.00
C 651.96 416.00 652.00 415.00 652.00 415.00
C 628.67 415.00 605.33 415.00 582.00 415.00
C 582.26 415.11 582.70 415.78 583.00 416.00 Z"/>
</g>
<g fill="None" fill-opacity="0.0" stroke="#8E8E8F" stroke-opacity="1.00" stroke-width="0.3"><path d="
M 652.00 416.00 
C 665.67 416.00 679.33 416.00 693.00 416.00
C 692.76 415.68 693.00 415.00 693.00 415.00
C 679.33 415.00 665.67 415.00 652.00 415.00
C 652.00 415.00 651.96 416.00 652.00 416.00 Z"/>
</g>
<g fill="None" fill-opacity="0.0" stroke="#737373" stroke-opacity="1.00" stroke-width="0.3"><path d="
M 693.00 416.00 
C 695.96 422.52 692.05 432.41 695.00 439.00
C 693.79 431.30 697.50 421.16 693.00 415.00
C 693.00 415.00 692.76 415.68 693.00 416.00 Z"/>
</g>
<g fill="None" fill-opacity="0.0" stroke="#030303" stroke-opacity="1.00" stroke-width="0.3"><path d="
M 581.00 417.00 
C 580.33 479.17 582.33 542.65 580.00 604.00
C 580.00 604.50 579.77 605.65 580.00 606.00
C 583.00 606.00 586.00 606.00 589.00 606.00
C 622.00 606.00 655.00 606.00 688.00 606.00
C 689.88 606.47 692.93 604.94 694.00 607.00
C 694.95 606.91 695.18 605.74 695.00 605.00
C 693.34 586.40 693.33 564.53 695.00 546.00
C 695.00 546.00 695.25 545.26 695.00 545.00
C 680.00 545.00 665.00 545.00 650.00 545.00
C 650.00 545.00 649.26 545.25 649.00 545.00
C 647.34 527.07 647.33 505.86 649.00 488.00
C 687.33 488.00 725.67 488.00 764.00 488.00
C 727.99 485.67 689.84 487.67 653.00 487.00 C 641.85 486.15 649.03 502.13 647.00 509.00 C 647.00 518.33 647.00 527.67 647.00 537.00 C 643.36 549.99 658.38 545.23 666.00 546.00 C 675.00 546.00 684.00 546.00 693.00 546.00
C 693.00 565.67 693.00 585.33 693.00 605.00
C 656.00 605.00 619.00 605.00 582.00 605.00
C 582.00 554.00 582.00 503.00 582.00 452.00 C 581.34 440.98 583.33 425.02 581.00 417.00 Z"/>
</g>
<g fill="None" fill-opacity="0.0" stroke="#727272" stroke-opacity="1.00" stroke-width="0.3"><path d="
M 580.00 604.00 
C 582.33 542.65 580.33 479.17 581.00 417.00
C 581.00 417.00 580.00 416.96 580.00 417.00
C 580.00 479.33 580.00 541.67 580.00 604.00 Z"/>
</g>
<g fill="None" fill-opacity="0.0" stroke="#C5C5C4" stroke-opacity="1.00" stroke-width="0.3"><path d="
M 725.00 439.00 
C 738.18 438.34 752.57 440.32 765.00 438.00
C 751.82 438.66 737.43 436.68 725.00 439.00 Z"/>
</g>
<g fill="None" fill-opacity="0.0" stroke="#5D5D5D" stroke-opacity="1.00" stroke-width="0.3"><path d="
M 649.00 545.00 
C 649.00 526.00 649.00 507.00 649.00 488.00
C 647.33 505.86 647.34 527.07 649.00 545.00 Z"/>
</g>
<g fill="None" fill-opacity="0.0" stroke="#ADADAD" stroke-opacity="1.00" stroke-width="0.3"><path d="
M 748.00 630.00 
C 753.67 630.00 759.33 630.00 765.00 630.00
C 765.00 582.67 765.00 535.33 765.00 488.00
C 765.00 488.00 764.32 488.24 764.00 488.00
C 764.00 535.00 764.00 582.00 764.00 629.00
C 758.82 629.61 752.42 627.75 748.00 630.00 Z"/>
</g>
<g fill="None" fill-opacity="0.0" stroke="#020202" stroke-opacity="1.00" stroke-width="0.3"><path d="
M 748.00 630.00 
C 745.80 630.44 742.45 629.04 741.00 631.00
C 742.64 637.26 742.69 646.81 741.00 653.00
C 740.78 653.30 740.35 653.95 740.00 654.00
C 733.17 653.34 725.01 655.32 719.00 653.00
C 718.65 653.05 718.22 653.70 718.00 654.00
C 718.00 662.00 718.00 670.00 718.00 678.00
C 676.00 678.00 634.00 678.00 592.00 678.00
C 580.67 678.00 569.33 678.00 558.00 678.00
C 558.00 678.00 557.26 678.25 557.00 678.00
C 555.36 671.41 555.31 661.52 557.00 655.00
C 557.00 655.00 557.25 654.26 557.00 654.00
C 549.17 653.34 540.01 655.33 533.00 653.00
C 533.00 646.00 533.00 639.00 533.00 632.00
C 529.16 636.85 532.18 646.51 531.26 653.74 C 538.34 656.63 547.22 654.20 555.00 655.00
C 555.81 665.18 550.06 684.08 567.00 679.00 C 614.00 679.00 661.00 679.00 708.00 679.00 C 724.34 683.61 717.80 664.54 719.00 655.00
C 726.65 654.50 734.98 656.01 742.22 654.22 C 744.03 646.95 742.49 638.66 743.00 631.00
C 752.39 630.04 770.64 635.91 766.00 620.00 C 765.33 576.15 767.33 531.10 765.00 488.00
C 765.00 535.33 765.00 582.67 765.00 630.00
C 759.33 630.00 753.67 630.00 748.00 630.00 Z"/>
</g>
<g fill="None" fill-opacity="0.0" stroke="#454545" stroke-opacity="1.00" stroke-width="0.3"><path d="
M 861.00 536.00 
C 853.51 533.75 844.93 535.61 837.00 535.00
C 837.00 542.67 837.00 550.33 837.00 558.00
C 844.67 558.00 852.33 558.00 860.00 558.00
C 862.05 551.02 860.27 542.70 861.00 536.00 Z"/>
</g>
<g fill="None" fill-opacity="0.0" stroke="#B1B2B2" stroke-opacity="1.00" stroke-width="0.3"><path d="
M 650.00 545.00 
C 665.00 545.00 680.00 545.00 695.00 545.00
C 681.14 543.33 663.93 543.34 650.00 545.00 Z"/>
</g>
<g fill="None" fill-opacity="0.0" stroke="#626262" stroke-opacity="1.00" stroke-width="0.3"><path d="
M 695.00 605.00 
C 695.00 585.33 695.00 565.67 695.00 546.00
C 693.33 564.53 693.34 586.40 695.00 605.00 Z"/>
</g>
<g fill="None" fill-opacity="0.0" stroke="#757575" stroke-opacity="1.00" stroke-width="0.3"><path d="
M 246.00 559.00 
C 255.67 559.00 265.33 559.00 275.00 559.00
C 274.96 559.00 275.00 558.00 275.00 558.00
C 265.49 558.65 254.76 556.69 246.00 559.00 Z"/>
</g>
<g fill="None" fill-opacity="0.0" stroke="#9B9B9B" stroke-opacity="1.00" stroke-width="0.3"><path d="
M 275.00 559.00 
C 288.51 558.34 303.24 560.32 316.00 558.00
C 302.33 558.00 288.67 558.00 275.00 558.00
C 275.00 558.00 274.96 559.00 275.00 559.00 Z"/>
</g>
<g fill="None" fill-opacity="0.0" stroke="#515151" stroke-opacity="1.00" stroke-width="0.3"><path d="
M 317.00 605.00 
C 318.67 590.48 318.66 572.60 317.00 558.00
C 317.00 573.67 317.00 589.33 317.00 605.00 Z"/>
</g>
<g fill="None" fill-opacity="0.0" stroke="#444444" stroke-opacity="1.00" stroke-width="0.3"><path d="
M 861.00 581.00 
C 845.33 581.00 829.67 581.00 814.00 581.00
C 813.52 588.95 815.07 597.45 813.00 605.00
C 825.00 605.00 837.00 605.00 849.00 605.00 C 865.95 610.05 860.19 591.19 861.00 581.00 Z"/>
</g>
<g fill="None" fill-opacity="0.0" stroke="#B7B7B7" stroke-opacity="1.00" stroke-width="0.3"><path d="
M 589.00 606.00 
C 586.00 606.00 583.00 606.00 580.00 606.00
C 581.89 607.72 587.04 607.52 589.00 606.00 Z"/>
</g>
<g fill="None" fill-opacity="0.0" stroke="#A9AAA9" stroke-opacity="1.00" stroke-width="0.3"><path d="
M 694.00 607.00 
C 692.93 604.94 689.88 606.47 688.00 606.00
C 689.07 608.06 692.12 606.53 694.00 607.00 Z"/>
</g>
<g fill="None" fill-opacity="0.0" stroke="#2D2D2D" stroke-opacity="1.00" stroke-width="0.3"><path d="
M 271.00 630.00 
C 263.99 627.67 254.83 629.66 247.00 629.00
C 254.01 631.33 263.17 629.34 271.00 630.00 Z"/>
</g>
<g fill="None" fill-opacity="0.0" stroke="#636363" stroke-opacity="1.00" stroke-width="0.3"><path d="
M 438.00 654.00 
C 440.33 646.66 438.34 637.17 439.00 629.00
C 436.67 636.34 438.66 645.83 438.00 654.00 Z"/>
</g>
<g fill="None" fill-opacity="0.0" stroke="#333333" stroke-opacity="1.00" stroke-width="0.3"><path d="
M 271.00 653.00 
C 271.00 645.67 271.00 638.33 271.00 631.00
C 269.31 637.19 269.36 646.74 271.00 653.00 Z"/>
</g>
<g fill="None" fill-opacity="0.0" stroke="#373737" stroke-opacity="1.00" stroke-width="0.3"><path d="
M 741.00 653.00 
C 742.69 646.81 742.64 637.26 741.00 631.00
C 741.00 638.33 741.00 645.67 741.00 653.00 Z"/>
</g>
<g fill="None" fill-opacity="0.0" stroke="#454545" stroke-opacity="1.00" stroke-width="0.3"><path d="
M 222.00 653.00 
C 198.67 653.00 175.33 653.00 152.00 653.00
C 152.00 661.00 152.00 669.00 152.00 677.00
C 175.33 677.00 198.67 677.00 222.00 677.00
C 222.00 669.00 222.00 661.00 222.00 653.00 Z"/>
</g>
<g fill="None" fill-opacity="0.0" stroke="#999999" stroke-opacity="1.00" stroke-width="0.3"><path d="
M 294.00 654.00 
C 287.33 651.67 278.50 653.66 271.00 653.00
C 277.67 655.33 286.50 653.34 294.00 654.00 Z"/>
</g>
<g fill="None" fill-opacity="0.0" stroke="#BABABA" stroke-opacity="1.00" stroke-width="0.3"><path d="
M 415.00 654.00 
C 422.33 654.00 429.67 654.00 437.00 654.00
C 430.81 652.31 421.26 652.36 415.00 654.00 Z"/>
</g>
<g fill="None" fill-opacity="0.0" stroke="#A7A7A7" stroke-opacity="1.00" stroke-width="0.3"><path d="
M 557.00 654.00 
C 549.99 651.67 540.83 653.66 533.00 653.00
C 540.01 655.33 549.17 653.34 557.00 654.00 Z"/>
</g>
<g fill="None" fill-opacity="0.0" stroke="#7F7F7F" stroke-opacity="1.00" stroke-width="0.3"><path d="
M 740.00 654.00 
C 733.99 651.68 725.83 653.66 719.00 653.00
C 725.01 655.32 733.17 653.34 740.00 654.00 Z"/>
</g>
<g fill="None" fill-opacity="0.0" stroke="#939393" stroke-opacity="1.00" stroke-width="0.3"><path d="
M 592.00 677.00 
C 592.04 677.00 592.00 678.00 592.00 678.00
C 634.00 678.00 676.00 678.00 718.00 678.00
C 718.00 670.00 718.00 662.00 718.00 654.00
C 715.67 660.67 717.66 669.50 717.00 677.00
C 675.33 677.00 633.67 677.00 592.00 677.00 Z"/>
</g>
<g fill="None" fill-opacity="0.0" stroke="#393939" stroke-opacity="1.00" stroke-width="0.3"><path d="
M 294.00 677.00 
C 294.00 669.67 294.00 662.33 294.00 655.00
C 292.31 661.19 292.36 670.74 294.00 677.00 Z"/>
</g>
<g fill="None" fill-opacity="0.0" stroke="#5A5A5A" stroke-opacity="1.00" stroke-width="0.3"><path d="
M 557.00 678.00 
C 557.00 670.33 557.00 662.67 557.00 655.00
C 555.31 661.52 555.36 671.41 557.00 678.00 Z"/>
</g>
<g fill="None" fill-opacity="0.0" stroke="#949494" stroke-opacity="1.00" stroke-width="0.3"><path d="
M 320.00 678.00 
C 351.51 677.33 384.24 679.33 415.00 677.00
C 383.48 677.67 350.76 675.67 320.00 678.00 Z"/>
</g>
<g fill="None" fill-opacity="0.0" stroke="#BEBEBD" stroke-opacity="1.00" stroke-width="0.3"><path d="
M 558.00 678.00 
C 569.33 678.00 580.67 678.00 592.00 678.00
C 592.00 678.00 592.04 677.00 592.00 677.00
C 580.82 677.66 568.43 675.68 558.00 678.00 Z"/>
</g>
<g fill="None" fill-opacity="0.0" stroke="#454545" stroke-opacity="1.00" stroke-width="0.3"><path d="
M 270.00 701.00 
C 238.89 700.85 206.72 701.10 175.00 701.00
C 175.00 708.33 175.00 715.67 175.00 723.00
C 206.67 723.00 238.33 723.00 270.00 723.00
C 270.00 715.67 270.00 708.33 270.00 701.00 Z"/>
</g>
<g fill="None" fill-opacity="0.0" stroke="#444444" stroke-opacity="1.00" stroke-width="0.3"><path d="
M 789.00 701.00 
C 781.00 701.00 773.00 701.00 765.00 701.00
C 765.00 716.67 765.00 732.33 765.00 748.00
C 757.33 748.00 749.67 748.00 742.00 748.00
C 742.00 764.00 742.00 780.00 742.00 796.00
C 734.66 795.41 726.87 796.36 719.00 796.00
C 718.58 811.46 716.59 827.65 719.00 843.00
C 726.67 843.00 734.33 843.00 742.00 843.00
C 742.00 831.33 742.00 819.67 742.00 808.00 C 737.00 791.51 754.92 796.56 765.00 796.00
C 765.00 784.00 765.00 772.00 765.00 760.00 C 759.95 743.05 778.81 748.81 789.00 748.00
C 789.00 732.33 789.00 716.67 789.00 701.00 Z"/>
</g>
<g fill="None" fill-opacity="0.0" stroke="#454545" stroke-opacity="1.00" stroke-width="0.3"><path d="
M 694.00 748.00 
C 692.38 740.47 697.44 728.74 691.07 724.07 C 684.42 724.04 677.58 725.43 671.00 724.00
C 671.00 732.00 671.00 740.00 671.00 748.00
C 663.33 748.00 655.67 748.00 648.00 748.00
C 648.00 756.00 648.00 764.00 648.00 772.00
C 640.00 772.00 632.00 772.00 624.00 772.00
C 624.00 780.00 624.00 788.00 624.00 796.00
C 632.00 796.00 640.00 796.00 648.00 796.00
C 648.50 788.35 646.99 780.02 648.78 772.78 C 655.71 770.97 663.67 772.51 671.00 772.00
C 671.50 764.35 669.99 756.02 671.78 748.78 C 678.71 746.97 686.67 748.51 694.00 748.00 Z"/>
</g>
<g fill="None" fill-opacity="0.0" stroke="#444444" stroke-opacity="1.00" stroke-width="0.3"><path d="
M 580.00 748.00 
C 500.03 747.98 422.53 748.12 343.00 748.00
C 343.00 756.00 343.00 764.00 343.00 772.00
C 422.00 772.00 501.00 772.00 580.00 772.00
C 580.00 764.00 580.00 756.00 580.00 748.00 Z"/>
</g>
<g fill="None" fill-opacity="0.0" stroke="#434343" stroke-opacity="1.00" stroke-width="0.3"><path d="
M 837.00 748.00 
C 829.33 748.00 821.67 748.00 814.00 748.00
C 813.71 756.30 814.57 764.16 814.00 772.00
C 821.67 772.00 829.33 772.00 837.00 772.00
C 837.00 764.00 837.00 756.00 837.00 748.00 Z"/>
</g>
<g fill="None" fill-opacity="0.0" stroke="#444444" stroke-opacity="1.00" stroke-width="0.3"><path d="
M 860.00 773.00 
C 852.33 773.00 844.67 773.00 837.00 773.00
C 837.00 780.67 837.00 788.33 837.00 796.00
C 829.33 796.00 821.67 796.00 814.00 796.00
C 814.00 803.67 814.00 811.33 814.00 819.00
C 821.67 819.00 829.33 819.00 837.00 819.00
C 836.01 812.15 838.37 804.02 836.00 797.00
C 843.57 794.94 852.03 796.47 860.00 796.00
C 860.00 788.33 860.00 780.67 860.00 773.00 Z"/>
</g>
<g fill="None" fill-opacity="0.0" stroke="#444444" stroke-opacity="1.00" stroke-width="0.3"><path d="
M 532.00 795.00 
C 485.49 797.29 437.92 795.37 391.00 796.00
C 391.00 804.00 391.00 812.00 391.00 820.00
C 438.48 819.83 484.52 819.93 532.00 820.00
C 532.00 811.67 532.00 803.33 532.00 795.00 Z"/>
</g>
<g fill="None" fill-opacity="0.0" stroke="#454545" stroke-opacity="1.00" stroke-width="0.3"><path d="
M 671.00 796.00 
C 663.68 796.50 655.68 795.00 648.78 796.78 C 646.97 803.71 648.51 811.67 648.00 819.00
C 655.67 819.00 663.33 819.00 671.00 819.00
C 671.22 810.95 670.46 803.68 671.00 796.00 Z"/>
</g>
<g fill="None" fill-opacity="0.0" stroke="#444444" stroke-opacity="1.00" stroke-width="0.3"><path d="
M 695.00 819.00 
C 687.35 819.50 679.02 817.99 671.78 819.78 C 669.97 827.05 671.51 835.34 671.00 843.00
C 678.67 843.00 686.33 843.00 694.00 843.00
C 694.31 835.08 695.45 827.53 695.00 819.00 Z"/>
</g>
<g fill="#2B2B2B" fill-opacity="1.00" stroke="None"><path d="
M 0.00 1024.00 
L 1024.00 1024.00
L 1024.00 0.00
L 0.00 0.00
L 0.00 1024.00 Z"/>
</g>
<g fill="#454545" fill-opacity="1.00" stroke="None"><path d="
M 645.00 178.00 
C 495.22 178.93 344.21 176.49 198.00 178.00
C 198.00 288.33 198.00 398.67 198.00 509.00
C 206.10 507.77 213.57 510.00 222.00 508.00
C 222.05 436.94 221.93 365.45 222.00 295.00
C 354.59 294.81 485.36 296.49 621.00 296.00
C 621.00 304.33 621.00 312.67 621.00 321.00
C 628.81 320.30 638.47 321.98 646.00 320.00
C 643.91 273.19 645.65 226.09 645.00 178.00 Z"/>
</g>
<g fill="#2B2B2B" fill-opacity="1.00" stroke="None"><path d="
M 621.00 202.00 
C 487.74 202.24 352.30 201.86 222.00 201.00
C 222.00 224.67 222.00 248.33 222.00 272.00
C 355.45 271.93 487.00 272.00 621.00 272.00
C 621.45 247.90 621.10 226.11 621.00 202.00 Z"/>
</g>
<g fill="#444444" fill-opacity="1.00" stroke="None"><path d="
M 270.00 224.00 
C 261.89 223.47 253.44 224.83 246.00 224.00
C 247.05 231.81 245.18 239.95 247.00 248.00
C 254.45 246.00 262.56 248.64 270.00 248.00
C 270.00 240.00 270.00 232.00 270.00 224.00 Z"/>
</g>
<g fill="#444444" fill-opacity="1.00" stroke="None"><path d="
M 318.00 225.00 
C 310.00 225.00 302.00 225.00 294.00 225.00
C 294.38 232.67 295.53 240.10 295.00 248.00
C 302.67 248.00 310.33 248.00 318.00 248.00
C 318.00 240.33 318.00 232.67 318.00 225.00 Z"/>
</g>
<g fill="#454545" fill-opacity="1.00" stroke="None"><path d="
M 837.00 272.00 
C 797.04 272.07 757.50 271.87 718.00 272.00
C 717.52 280.17 718.16 287.56 718.00 296.00
C 752.98 294.54 791.36 296.19 829.00 295.00 C 842.30 297.46 835.26 279.76 837.00 272.00 Z"/>
</g>
<g fill="#444444" fill-opacity="1.00" stroke="None"><path d="
M 814.00 320.00 
C 797.33 320.00 780.67 320.00 764.00 320.00
C 763.90 328.12 764.00 335.59 765.00 343.00
C 782.09 342.80 797.61 343.51 814.00 343.00
C 814.00 335.33 814.00 327.67 814.00 320.00 Z"/>
</g>
<g fill="#090909" fill-opacity="1.00" stroke="None"><path d="
M 440.00 629.00 
C 439.50 629.00 439.00 629.00 439.00 629.00
C 438.34 637.17 440.33 646.66 438.00 654.00
C 437.74 654.25 437.00 654.00 437.00 654.00
C 429.67 654.00 422.33 654.00 415.00 654.00
C 415.00 661.67 415.00 669.33 415.00 677.00
C 384.24 679.33 351.51 677.33 320.00 678.00
C 311.50 677.34 301.67 679.33 294.00 677.00
C 292.36 670.74 292.31 661.19 294.00 655.00
C 294.00 654.50 294.00 654.00 294.00 654.00
C 286.50 653.34 277.67 655.33 271.00 653.00
C 269.36 646.74 269.31 637.19 271.00 631.00
C 271.00 630.50 271.00 630.00 271.00 630.00
C 263.17 629.34 254.01 631.33 247.00 629.00
C 244.67 606.57 246.66 582.18 246.00 559.00
C 254.76 556.69 265.49 558.65 275.00 558.00
C 288.67 558.00 302.33 558.00 316.00 558.00
C 316.50 558.00 317.00 558.00 317.00 558.00
C 318.66 572.60 318.67 590.48 317.00 605.00
C 340.34 607.99 366.35 604.01 390.00 607.00
C 390.00 535.00 390.00 463.00 390.00 391.00
C 366.00 391.00 342.00 391.00 318.00 391.00
C 318.67 375.17 316.67 358.01 319.00 343.00
C 317.58 337.58 316.16 350.84 317.00 354.00 C 317.00 366.67 317.00 379.33 317.00 392.00
C 340.93 391.85 364.54 393.53 388.00 393.00
C 388.93 463.50 386.56 534.78 389.00 605.00
C 365.67 605.00 342.33 605.00 319.00 605.00
C 319.00 592.67 319.00 580.33 319.00 568.00 C 323.57 550.90 302.83 558.64 293.00 557.00 C 281.00 557.00 269.00 557.00 257.00 557.00 C 239.61 551.92 246.06 571.69 245.00 582.00 C 245.00 594.33 245.00 606.67 245.00 619.00 C 239.95 635.95 258.81 630.19 269.00 631.00
C 269.50 638.65 267.99 646.98 269.78 654.22 C 276.71 656.03 284.67 654.49 292.00 655.00
C 292.39 665.88 287.54 684.41 305.00 679.00 C 342.00 679.00 379.00 679.00 416.00 679.00
C 416.00 671.00 416.00 663.00 416.00 655.00
C 423.72 654.17 432.80 656.70 439.67 653.67 C 440.44 645.60 439.78 637.20 440.00 629.00 Z"/>
</g>
<g fill="#030303" fill-opacity="1.00" stroke="None"><path d="
M 376.00 342.00 
C 389.33 342.00 402.67 342.00 416.00 342.00
C 428.67 342.00 441.33 342.00 454.00 342.00
C 456.76 342.84 462.57 340.04 463.00 344.00
C 462.33 438.84 464.33 534.99 462.00 629.00
C 456.15 631.95 446.92 628.06 441.00 631.00
C 448.76 629.12 466.71 636.56 464.00 623.00 C 464.00 531.67 464.00 440.33 464.00 349.00 C 466.69 335.42 448.77 342.89 441.00 341.00 C 401.15 341.67 360.10 339.67 321.00 342.00
C 339.33 342.00 357.67 342.00 376.00 342.00 Z"/>
</g>
<g fill="#080808" fill-opacity="1.00" stroke="None"><path d="
M 560.00 343.00 
C 560.50 343.00 561.00 343.00 561.00 343.00
C 576.09 340.67 593.15 342.66 609.00 342.00
C 628.33 342.00 647.67 342.00 667.00 342.00
C 682.33 342.00 697.67 342.00 713.00 342.00
C 714.33 342.00 715.67 342.00 717.00 342.00
C 664.65 339.67 610.17 341.67 557.00 341.00
C 557.15 342.83 559.76 341.33 560.00 343.00 Z"/>
</g>
<g fill="#696969" fill-opacity="1.00" stroke="None"><path d="
M 376.00 343.00 
C 389.33 343.00 402.67 343.00 416.00 343.00
C 415.96 343.00 416.00 342.00 416.00 342.00
C 402.67 342.00 389.33 342.00 376.00 342.00
C 376.00 342.00 375.96 343.00 376.00 343.00 Z"/>
</g>
<g fill="#9B9B9B" fill-opacity="1.00" stroke="None"><path d="
M 416.00 343.00 
C 428.50 342.33 442.32 344.33 454.00 342.00
C 441.33 342.00 428.67 342.00 416.00 342.00
C 416.00 342.00 415.96 343.00 416.00 343.00 Z"/>
</g>
<g fill="#F0F0F0" fill-opacity="1.00" stroke="None"><path d="
M 416.00 343.00 
C 402.67 343.00 389.33 343.00 376.00 343.00
C 357.00 343.00 338.00 343.00 319.00 343.00
C 316.67 358.01 318.67 375.17 318.00 391.00
C 342.00 391.00 366.00 391.00 390.00 391.00
C 390.00 463.00 390.00 535.00 390.00 607.00
C 366.35 604.01 340.34 607.99 317.00 605.00
C 317.00 589.33 317.00 573.67 317.00 558.00
C 317.00 558.00 316.50 558.00 316.00 558.00
C 303.24 560.32 288.51 558.34 275.00 559.00
C 265.33 559.00 255.67 559.00 246.00 559.00
C 246.66 582.18 244.67 606.57 247.00 629.00
C 254.83 629.66 263.99 627.67 271.00 630.00
C 271.00 630.00 271.00 630.50 271.00 631.00
C 271.00 638.33 271.00 645.67 271.00 653.00
C 278.50 653.66 287.33 651.67 294.00 654.00
C 294.00 654.00 294.00 654.50 294.00 655.00
C 294.00 662.33 294.00 669.67 294.00 677.00
C 301.67 679.33 311.50 677.34 320.00 678.00
C 350.76 675.67 383.48 677.67 415.00 677.00
C 415.00 669.33 415.00 661.67 415.00 654.00
C 421.26 652.36 430.81 652.31 437.00 654.00
C 437.00 654.00 437.74 654.25 438.00 654.00
C 438.66 645.83 436.67 636.34 439.00 629.00
C 439.00 629.00 439.50 629.00 440.00 629.00
C 447.33 629.00 454.67 629.00 462.00 629.00
C 462.67 534.16 460.67 438.01 463.00 344.00
C 462.57 340.04 456.76 342.84 454.00 342.00
C 442.32 344.33 428.50 342.33 416.00 343.00 Z"/>
</g>
<g fill="#0A0A0A" fill-opacity="1.00" stroke="None"><path d="
M 522.00 391.00 
C 525.67 391.00 529.33 391.00 533.00 391.00
C 533.00 383.00 533.00 375.00 533.00 367.00
C 538.67 367.00 544.33 367.00 550.00 367.00
C 552.33 367.00 554.67 367.00 557.00 367.00
C 557.25 366.74 557.00 366.00 557.00 366.00
C 554.70 359.24 556.64 350.51 556.00 343.00
C 553.69 346.97 555.65 358.99 555.00 366.00
C 547.46 367.06 538.21 363.81 531.78 367.78 C 530.58 374.64 530.26 383.16 532.00 390.00
C 525.16 390.63 517.09 388.71 511.00 391.00
C 514.67 391.00 518.33 391.00 522.00 391.00 Z"/>
</g>
<g fill="#333333" fill-opacity="1.00" stroke="None"><path d="
M 561.00 343.00 
C 577.00 343.00 593.00 343.00 609.00 343.00
C 608.96 343.00 609.00 342.00 609.00 342.00
C 593.15 342.66 576.09 340.67 561.00 343.00 Z"/>
</g>
<g fill="#656565" fill-opacity="1.00" stroke="None"><path d="
M 609.00 343.00 
C 628.33 343.00 647.67 343.00 667.00 343.00
C 666.96 343.00 667.00 342.00 667.00 342.00
C 647.67 342.00 628.33 342.00 609.00 342.00
C 609.00 342.00 608.96 343.00 609.00 343.00 Z"/>
</g>
<g fill="#A0A0A0" fill-opacity="1.00" stroke="None"><path d="
M 667.00 343.00 
C 682.17 342.33 698.66 344.33 713.00 342.00
C 697.67 342.00 682.33 342.00 667.00 342.00
C 667.00 342.00 666.96 343.00 667.00 343.00 Z"/>
</g>
<g fill="#F0F0F0" fill-opacity="1.00" stroke="None"><path d="
M 667.00 343.00 
C 647.67 343.00 628.33 343.00 609.00 343.00
C 593.00 343.00 577.00 343.00 561.00 343.00
C 561.00 343.00 560.50 343.00 560.00 343.00
C 559.00 343.00 558.00 343.00 557.00 343.00
C 557.00 350.67 557.00 358.33 557.00 366.00
C 557.00 366.00 557.25 366.74 557.00 367.00
C 555.67 368.47 551.26 368.71 550.00 367.00
C 544.33 367.00 538.67 367.00 533.00 367.00
C 533.00 375.00 533.00 383.00 533.00 391.00
C 530.24 393.16 525.51 391.45 522.00 392.00
C 518.00 392.00 514.00 392.00 510.00 392.00
C 510.00 471.00 510.00 550.00 510.00 629.00
C 517.67 629.00 525.33 629.00 533.00 629.00
C 533.00 630.00 533.00 631.00 533.00 632.00
C 533.00 639.00 533.00 646.00 533.00 653.00
C 540.83 653.66 549.99 651.67 557.00 654.00
C 557.25 654.26 557.00 655.00 557.00 655.00
C 557.00 662.67 557.00 670.33 557.00 678.00
C 557.26 678.25 558.00 678.00 558.00 678.00
C 568.43 675.68 580.82 677.66 592.00 677.00
C 633.67 677.00 675.33 677.00 717.00 677.00
C 717.66 669.50 715.67 660.67 718.00 654.00
C 718.22 653.70 718.65 653.05 719.00 653.00
C 725.83 653.66 733.99 651.68 740.00 654.00
C 740.35 653.95 740.78 653.30 741.00 653.00
C 741.00 645.67 741.00 638.33 741.00 631.00
C 742.45 629.04 745.80 630.44 748.00 630.00
C 752.42 627.75 758.82 629.61 764.00 629.00
C 764.00 582.00 764.00 535.00 764.00 488.00
C 725.67 488.00 687.33 488.00 649.00 488.00
C 649.00 507.00 649.00 526.00 649.00 545.00
C 649.26 545.25 650.00 545.00 650.00 545.00
C 663.93 543.34 681.14 543.33 695.00 545.00
C 695.25 545.26 695.00 546.00 695.00 546.00
C 695.00 565.67 695.00 585.33 695.00 605.00
C 695.18 605.74 694.95 606.91 694.00 607.00
C 692.12 606.53 689.07 608.06 688.00 606.00
C 655.00 606.00 622.00 606.00 589.00 606.00
C 587.04 607.52 581.89 607.72 580.00 606.00
C 579.77 605.65 580.00 604.50 580.00 604.00
C 580.00 541.67 580.00 479.33 580.00 417.00
C 579.85 415.81 580.59 414.49 582.00 415.00
C 605.33 415.00 628.67 415.00 652.00 415.00
C 665.67 415.00 679.33 415.00 693.00 415.00
C 697.50 421.16 693.79 431.30 695.00 439.00
C 705.00 439.00 715.00 439.00 725.00 439.00
C 737.43 436.68 751.82 438.66 765.00 438.00
C 765.25 437.74 765.00 437.00 765.00 437.00
C 762.68 422.91 764.66 406.85 764.00 392.00
C 756.50 391.34 747.67 393.33 741.00 391.00
C 740.75 390.74 741.00 390.00 741.00 390.00
C 741.00 382.33 741.00 374.67 741.00 367.00
C 737.67 367.00 734.33 367.00 731.00 367.00
C 727.91 369.19 722.84 367.43 719.00 368.00
C 714.43 362.24 718.26 350.18 717.00 342.00
C 715.67 342.00 714.33 342.00 713.00 342.00
C 698.66 344.33 682.17 342.33 667.00 343.00 Z"/>
</g>
<g fill="#8D8D8D" fill-opacity="1.00" stroke="None"><path d="
M 719.00 368.00 
C 718.96 368.00 719.00 367.00 719.00 367.00
C 716.70 359.58 718.64 350.18 718.00 342.00
C 718.00 342.00 717.32 342.24 717.00 342.00
C 718.26 350.18 714.43 362.24 719.00 368.00 Z"/>
</g>
<g fill="#010101" fill-opacity="1.00" stroke="None"><path d="
M 719.00 367.00 
C 723.00 367.00 727.00 367.00 731.00 367.00
C 734.33 367.00 737.67 367.00 741.00 367.00
C 737.37 364.69 725.67 366.65 719.00 366.00
C 718.36 358.16 720.30 349.09 718.00 342.00
C 718.64 350.18 716.70 359.58 719.00 367.00 Z"/>
</g>
<g fill="#5C5C5C" fill-opacity="1.00" stroke="None"><path d="
M 557.00 366.00 
C 557.00 358.33 557.00 350.67 557.00 343.00
C 557.00 343.00 556.35 343.23 556.00 343.00
C 556.64 350.51 554.70 359.24 557.00 366.00 Z"/>
</g>
<g fill="#9E9E9E" fill-opacity="1.00" stroke="None"><path d="
M 462.00 629.00 
C 464.33 534.99 462.33 438.84 463.00 344.00
C 460.67 438.01 462.67 534.16 462.00 629.00 Z"/>
</g>
<g fill="#B1B1B1" fill-opacity="1.00" stroke="None"><path d="
M 557.00 367.00 
C 554.67 367.00 552.33 367.00 550.00 367.00
C 551.26 368.71 555.67 368.47 557.00 367.00 Z"/>
</g>
<g fill="#B5B6B5" fill-opacity="1.00" stroke="None"><path d="
M 719.00 368.00 
C 722.84 367.43 727.91 369.19 731.00 367.00
C 727.00 367.00 723.00 367.00 719.00 367.00
C 719.00 367.00 718.96 368.00 719.00 368.00 Z"/>
</g>
<g fill="#020202" fill-opacity="1.00" stroke="None"><path d="
M 741.00 391.00 
C 748.83 391.66 757.99 389.67 765.00 392.00
C 765.00 407.00 765.00 422.00 765.00 437.00
C 765.00 437.00 765.25 437.74 765.00 438.00
C 752.57 440.32 738.18 438.34 725.00 439.00
C 715.00 439.00 705.00 439.00 695.00 439.00
C 692.05 432.41 695.96 422.52 693.00 416.00
C 679.33 416.00 665.67 416.00 652.00 416.00
C 629.00 416.00 606.00 416.00 583.00 416.00
C 618.68 418.33 656.50 416.33 693.00 417.00
C 693.55 427.07 688.53 445.03 705.00 440.00 C 716.33 440.00 727.67 440.00 739.00 440.00 C 747.36 437.45 766.98 446.29 766.00 433.00 C 766.00 421.67 766.00 410.33 766.00 399.00 C 769.27 383.90 749.61 392.01 741.00 390.00
C 741.00 390.00 740.75 390.74 741.00 391.00 Z"/>
</g>
<g fill="#868584" fill-opacity="1.00" stroke="None"><path d="
M 522.00 392.00 
C 525.51 391.45 530.24 393.16 533.00 391.00
C 529.33 391.00 525.67 391.00 522.00 391.00
C 522.00 391.00 521.96 392.00 522.00 392.00 Z"/>
</g>
<g fill="#929292" fill-opacity="1.00" stroke="None"><path d="
M 764.00 392.00 
C 764.50 392.00 765.00 392.00 765.00 392.00
C 757.99 389.67 748.83 391.66 741.00 391.00
C 747.67 393.33 756.50 391.34 764.00 392.00 Z"/>
</g>
<g fill="#B9B9B9" fill-opacity="1.00" stroke="None"><path d="
M 765.00 437.00 
C 765.00 422.00 765.00 407.00 765.00 392.00
C 765.00 392.00 764.50 392.00 764.00 392.00
C 764.66 406.85 762.68 422.91 765.00 437.00 Z"/>
</g>
<g fill="#6B6B6B" fill-opacity="1.00" stroke="None"><path d="
M 583.00 416.00 
C 606.00 416.00 629.00 416.00 652.00 416.00
C 651.96 416.00 652.00 415.00 652.00 415.00
C 628.67 415.00 605.33 415.00 582.00 415.00
C 582.26 415.11 582.70 415.78 583.00 416.00 Z"/>
</g>
<g fill="#8E8E8F" fill-opacity="1.00" stroke="None"><path d="
M 652.00 416.00 
C 665.67 416.00 679.33 416.00 693.00 416.00
C 692.76 415.68 693.00 415.00 693.00 415.00
C 679.33 415.00 665.67 415.00 652.00 415.00
C 652.00 415.00 651.96 416.00 652.00 416.00 Z"/>
</g>
<g fill="#737373" fill-opacity="1.00" stroke="None"><path d="
M 693.00 416.00 
C 695.96 422.52 692.05 432.41 695.00 439.00
C 693.79 431.30 697.50 421.16 693.00 415.00
C 693.00 415.00 692.76 415.68 693.00 416.00 Z"/>
</g>
<g fill="#030303" fill-opacity="1.00" stroke="None"><path d="
M 581.00 417.00 
C 580.33 479.17 582.33 542.65 580.00 604.00
C 580.00 604.50 579.77 605.65 580.00 606.00
C 583.00 606.00 586.00 606.00 589.00 606.00
C 622.00 606.00 655.00 606.00 688.00 606.00
C 689.88 606.47 692.93 604.94 694.00 607.00
C 694.95 606.91 695.18 605.74 695.00 605.00
C 693.34 586.40 693.33 564.53 695.00 546.00
C 695.00 546.00 695.25 545.26 695.00 545.00
C 680.00 545.00 665.00 545.00 650.00 545.00
C 650.00 545.00 649.26 545.25 649.00 545.00
C 647.34 527.07 647.33 505.86 649.00 488.00
C 687.33 488.00 725.67 488.00 764.00 488.00
C 727.99 485.67 689.84 487.67 653.00 487.00 C 641.85 486.15 649.03 502.13 647.00 509.00 C 647.00 518.33 647.00 527.67 647.00 537.00 C 643.36 549.99 658.38 545.23 666.00 546.00 C 675.00 546.00 684.00 546.00 693.00 546.00
C 693.00 565.67 693.00 585.33 693.00 605.00
C 656.00 605.00 619.00 605.00 582.00 605.00
C 582.00 554.00 582.00 503.00 582.00 452.00 C 581.34 440.98 583.33 425.02 581.00 417.00 Z"/>
</g>
<g fill="#727272" fill-opacity="1.00" stroke="None"><path d="
M 580.00 604.00 
C 582.33 542.65 580.33 479.17 581.00 417.00
C 581.00 417.00 580.00 416.96 580.00 417.00
C 580.00 479.33 580.00 541.67 580.00 604.00 Z"/>
</g>
<g fill="#C5C5C4" fill-opacity="1.00" stroke="None"><path d="
M 725.00 439.00 
C 738.18 438.34 752.57 440.32 765.00 438.00
C 751.82 438.66 737.43 436.68 725.00 439.00 Z"/>
</g>
<g fill="#5D5D5D" fill-opacity="1.00" stroke="None"><path d="
M 649.00 545.00 
C 649.00 526.00 649.00 507.00 649.00 488.00
C 647.33 505.86 647.34 527.07 649.00 545.00 Z"/>
</g>
<g fill="#ADADAD" fill-opacity="1.00" stroke="None"><path d="
M 748.00 630.00 
C 753.67 630.00 759.33 630.00 765.00 630.00
C 765.00 582.67 765.00 535.33 765.00 488.00
C 765.00 488.00 764.32 488.24 764.00 488.00
C 764.00 535.00 764.00 582.00 764.00 629.00
C 758.82 629.61 752.42 627.75 748.00 630.00 Z"/>
</g>
<g fill="#020202" fill-opacity="1.00" stroke="None"><path d="
M 748.00 630.00 
C 745.80 630.44 742.45 629.04 741.00 631.00
C 742.64 637.26 742.69 646.81 741.00 653.00
C 740.78 653.30 740.35 653.95 740.00 654.00
C 733.17 653.34 725.01 655.32 719.00 653.00
C 718.65 653.05 718.22 653.70 718.00 654.00
C 718.00 662.00 718.00 670.00 718.00 678.00
C 676.00 678.00 634.00 678.00 592.00 678.00
C 580.67 678.00 569.33 678.00 558.00 678.00
C 558.00 678.00 557.26 678.25 557.00 678.00
C 555.36 671.41 555.31 661.52 557.00 655.00
C 557.00 655.00 557.25 654.26 557.00 654.00
C 549.17 653.34 540.01 655.33 533.00 653.00
C 533.00 646.00 533.00 639.00 533.00 632.00
C 529.16 636.85 532.18 646.51 531.26 653.74 C 538.34 656.63 547.22 654.20 555.00 655.00
C 555.81 665.18 550.06 684.08 567.00 679.00 C 614.00 679.00 661.00 679.00 708.00 679.00 C 724.34 683.61 717.80 664.54 719.00 655.00
C 726.65 654.50 734.98 656.01 742.22 654.22 C 744.03 646.95 742.49 638.66 743.00 631.00
C 752.39 630.04 770.64 635.91 766.00 620.00 C 765.33 576.15 767.33 531.10 765.00 488.00
C 765.00 535.33 765.00 582.67 765.00 630.00
C 759.33 630.00 753.67 630.00 748.00 630.00 Z"/>
</g>
<g fill="#454545" fill-opacity="1.00" stroke="None"><path d="
M 861.00 536.00 
C 853.51 533.75 844.93 535.61 837.00 535.00
C 837.00 542.67 837.00 550.33 837.00 558.00
C 844.67 558.00 852.33 558.00 860.00 558.00
C 862.05 551.02 860.27 542.70 861.00 536.00 Z"/>
</g>
<g fill="#B1B2B2" fill-opacity="1.00" stroke="None"><path d="
M 650.00 545.00 
C 665.00 545.00 680.00 545.00 695.00 545.00
C 681.14 543.33 663.93 543.34 650.00 545.00 Z"/>
</g>
<g fill="#626262" fill-opacity="1.00" stroke="None"><path d="
M 695.00 605.00 
C 695.00 585.33 695.00 565.67 695.00 546.00
C 693.33 564.53 693.34 586.40 695.00 605.00 Z"/>
</g>
<g fill="#757575" fill-opacity="1.00" stroke="None"><path d="
M 246.00 559.00 
C 255.67 559.00 265.33 559.00 275.00 559.00
C 274.96 559.00 275.00 558.00 275.00 558.00
C 265.49 558.65 254.76 556.69 246.00 559.00 Z"/>
</g>
<g fill="#9B9B9B" fill-opacity="1.00" stroke="None"><path d="
M 275.00 559.00 
C 288.51 558.34 303.24 560.32 316.00 558.00
C 302.33 558.00 288.67 558.00 275.00 558.00
C 275.00 558.00 274.96 559.00 275.00 559.00 Z"/>
</g>
<g fill="#515151" fill-opacity="1.00" stroke="None"><path d="
M 317.00 605.00 
C 318.67 590.48 318.66 572.60 317.00 558.00
C 317.00 573.67 317.00 589.33 317.00 605.00 Z"/>
</g>
<g fill="#444444" fill-opacity="1.00" stroke="None"><path d="
M 861.00 581.00 
C 845.33 581.00 829.67 581.00 814.00 581.00
C 813.52 588.95 815.07 597.45 813.00 605.00
C 825.00 605.00 837.00 605.00 849.00 605.00 C 865.95 610.05 860.19 591.19 861.00 581.00 Z"/>
</g>
<g fill="#B7B7B7" fill-opacity="1.00" stroke="None"><path d="
M 589.00 606.00 
C 586.00 606.00 583.00 606.00 580.00 606.00
C 581.89 607.72 587.04 607.52 589.00 606.00 Z"/>
</g>
<g fill="#A9AAA9" fill-opacity="1.00" stroke="None"><path d="
M 694.00 607.00 
C 692.93 604.94 689.88 606.47 688.00 606.00
C 689.07 608.06 692.12 606.53 694.00 607.00 Z"/>
</g>
<g fill="#2D2D2D" fill-opacity="1.00" stroke="None"><path d="
M 271.00 630.00 
C 263.99 627.67 254.83 629.66 247.00 629.00
C 254.01 631.33 263.17 629.34 271.00 630.00 Z"/>
</g>
<g fill="#636363" fill-opacity="1.00" stroke="None"><path d="
M 438.00 654.00 
C 440.33 646.66 438.34 637.17 439.00 629.00
C 436.67 636.34 438.66 645.83 438.00 654.00 Z"/>
</g>
<g fill="#333333" fill-opacity="1.00" stroke="None"><path d="
M 271.00 653.00 
C 271.00 645.67 271.00 638.33 271.00 631.00
C 269.31 637.19 269.36 646.74 271.00 653.00 Z"/>
</g>
<g fill="#373737" fill-opacity="1.00" stroke="None"><path d="
M 741.00 653.00 
C 742.69 646.81 742.64 637.26 741.00 631.00
C 741.00 638.33 741.00 645.67 741.00 653.00 Z"/>
</g>
<g fill="#454545" fill-opacity="1.00" stroke="None"><path d="
M 222.00 653.00 
C 198.67 653.00 175.33 653.00 152.00 653.00
C 152.00 661.00 152.00 669.00 152.00 677.00
C 175.33 677.00 198.67 677.00 222.00 677.00
C 222.00 669.00 222.00 661.00 222.00 653.00 Z"/>
</g>
<g fill="#999999" fill-opacity="1.00" stroke="None"><path d="
M 294.00 654.00 
C 287.33 651.67 278.50 653.66 271.00 653.00
C 277.67 655.33 286.50 653.34 294.00 654.00 Z"/>
</g>
<g fill="#BABABA" fill-opacity="1.00" stroke="None"><path d="
M 415.00 654.00 
C 422.33 654.00 429.67 654.00 437.00 654.00
C 430.81 652.31 421.26 652.36 415.00 654.00 Z"/>
</g>
<g fill="#A7A7A7" fill-opacity="1.00" stroke="None"><path d="
M 557.00 654.00 
C 549.99 651.67 540.83 653.66 533.00 653.00
C 540.01 655.33 549.17 653.34 557.00 654.00 Z"/>
</g>
<g fill="#7F7F7F" fill-opacity="1.00" stroke="None"><path d="
M 740.00 654.00 
C 733.99 651.68 725.83 653.66 719.00 653.00
C 725.01 655.32 733.17 653.34 740.00 654.00 Z"/>
</g>
<g fill="#939393" fill-opacity="1.00" stroke="None"><path d="
M 592.00 677.00 
C 592.04 677.00 592.00 678.00 592.00 678.00
C 634.00 678.00 676.00 678.00 718.00 678.00
C 718.00 670.00 718.00 662.00 718.00 654.00
C 715.67 660.67 717.66 669.50 717.00 677.00
C 675.33 677.00 633.67 677.00 592.00 677.00 Z"/>
</g>
<g fill="#393939" fill-opacity="1.00" stroke="None"><path d="
M 294.00 677.00 
C 294.00 669.67 294.00 662.33 294.00 655.00
C 292.31 661.19 292.36 670.74 294.00 677.00 Z"/>
</g>
<g fill="#5A5A5A" fill-opacity="1.00" stroke="None"><path d="
M 557.00 678.00 
C 557.00 670.33 557.00 662.67 557.00 655.00
C 555.31 661.52 555.36 671.41 557.00 678.00 Z"/>
</g>
<g fill="#949494" fill-opacity="1.00" stroke="None"><path d="
M 320.00 678.00 
C 351.51 677.33 384.24 679.33 415.00 677.00
C 383.48 677.67 350.76 675.67 320.00 678.00 Z"/>
</g>
<g fill="#BEBEBD" fill-opacity="1.00" stroke="None"><path d="
M 558.00 678.00 
C 569.33 678.00 580.67 678.00 592.00 678.00
C 592.00 678.00 592.04 677.00 592.00 677.00
C 580.82 677.66 568.43 675.68 558.00 678.00 Z"/>
</g>
<g fill="#454545" fill-opacity="1.00" stroke="None"><path d="
M 270.00 701.00 
C 238.89 700.85 206.72 701.10 175.00 701.00
C 175.00 708.33 175.00 715.67 175.00 723.00
C 206.67 723.00 238.33 723.00 270.00 723.00
C 270.00 715.67 270.00 708.33 270.00 701.00 Z"/>
</g>
<g fill="#444444" fill-opacity="1.00" stroke="None"><path d="
M 789.00 701.00 
C 781.00 701.00 773.00 701.00 765.00 701.00
C 765.00 716.67 765.00 732.33 765.00 748.00
C 757.33 748.00 749.67 748.00 742.00 748.00
C 742.00 764.00 742.00 780.00 742.00 796.00
C 734.66 795.41 726.87 796.36 719.00 796.00
C 718.58 811.46 716.59 827.65 719.00 843.00
C 726.67 843.00 734.33 843.00 742.00 843.00
C 742.00 831.33 742.00 819.67 742.00 808.00 C 737.00 791.51 754.92 796.56 765.00 796.00
C 765.00 784.00 765.00 772.00 765.00 760.00 C 759.95 743.05 778.81 748.81 789.00 748.00
C 789.00 732.33 789.00 716.67 789.00 701.00 Z"/>
</g>
<g fill="#454545" fill-opacity="1.00" stroke="None"><path d="
M 694.00 748.00 
C 692.38 740.47 697.44 728.74 691.07 724.07 C 684.42 724.04 677.58 725.43 671.00 724.00
C 671.00 732.00 671.00 740.00 671.00 748.00
C 663.33 748.00 655.67 748.00 648.00 748.00
C 648.00 756.00 648.00 764.00 648.00 772.00
C 640.00 772.00 632.00 772.00 624.00 772.00
C 624.00 780.00 624.00 788.00 624.00 796.00
C 632.00 796.00 640.00 796.00 648.00 796.00
C 648.50 788.35 646.99 780.02 648.78 772.78 C 655.71 770.97 663.67 772.51 671.00 772.00
C 671.50 764.35 669.99 756.02 671.78 748.78 C 678.71 746.97 686.67 748.51 694.00 748.00 Z"/>
</g>
<g fill="#444444" fill-opacity="1.00" stroke="None"><path d="
M 580.00 748.00 
C 500.03 747.98 422.53 748.12 343.00 748.00
C 343.00 756.00 343.00 764.00 343.00 772.00
C 422.00 772.00 501.00 772.00 580.00 772.00
C 580.00 764.00 580.00 756.00 580.00 748.00 Z"/>
</g>
<g fill="#434343" fill-opacity="1.00" stroke="None"><path d="
M 837.00 748.00 
C 829.33 748.00 821.67 748.00 814.00 748.00
C 813.71 756.30 814.57 764.16 814.00 772.00
C 821.67 772.00 829.33 772.00 837.00 772.00
C 837.00 764.00 837.00 756.00 837.00 748.00 Z"/>
</g>
<g fill="#444444" fill-opacity="1.00" stroke="None"><path d="
M 860.00 773.00 
C 852.33 773.00 844.67 773.00 837.00 773.00
C 837.00 780.67 837.00 788.33 837.00 796.00
C 829.33 796.00 821.67 796.00 814.00 796.00
C 814.00 803.67 814.00 811.33 814.00 819.00
C 821.67 819.00 829.33 819.00 837.00 819.00
C 836.01 812.15 838.37 804.02 836.00 797.00
C 843.57 794.94 852.03 796.47 860.00 796.00
C 860.00 788.33 860.00 780.67 860.00 773.00 Z"/>
</g>
<g fill="#444444" fill-opacity="1.00" stroke="None"><path d="
M 532.00 795.00 
C 485.49 797.29 437.92 795.37 391.00 796.00
C 391.00 804.00 391.00 812.00 391.00 820.00
C 438.48 819.83 484.52 819.93 532.00 820.00
C 532.00 811.67 532.00 803.33 532.00 795.00 Z"/>
</g>
<g fill="#454545" fill-opacity="1.00" stroke="None"><path d="
M 671.00 796.00 
C 663.68 796.50 655.68 795.00 648.78 796.78 C 646.97 803.71 648.51 811.67 648.00 819.00
C 655.67 819.00 663.33 819.00 671.00 819.00
C 671.22 810.95 670.46 803.68 671.00 796.00 Z"/>
</g>
<g fill="#444444" fill-opacity="1.00" stroke="None"><path d="
M 695.00 819.00 
C 687.35 819.50 679.02 817.99 671.78 819.78 C 669.97 827.05 671.51 835.34 671.00 843.00
C 678.67 843.00 686.33 843.00 694.00 843.00
C 694.31 835.08 695.45 827.53 695.00 819.00 Z"/>
</g>
</svg>